<?xml version="1.0" standalone="no"?>
<!DOCTYPE svg PUBLIC "-//W3C//DTD SVG 20010904//EN"
 "http://www.w3.org/TR/2001/REC-SVG-20010904/DTD/svg10.dtd">
<svg version="1.0" xmlns="http://www.w3.org/2000/svg"
 width="790.000000pt" height="790.000000pt" viewBox="0 0 790.000000 790.000000"
 preserveAspectRatio="xMidYMid meet">
<metadata>
Created by potrace 1.11, written by Peter Selinger 2001-2013
</metadata>
<g transform="translate(0.000000,790.000000) scale(0.100000,-0.100000)"
fill="#000000" stroke="none">
<path d="M2450 7743 c-415 -41 -780 -182 -1070 -413 -277 -221 -487 -516 -625
-880 -28 -74 -69 -203 -81 -250 -2 -8 -10 -42 -18 -76 -31 -124 -57 -279 -71
-409 -4 -33 -9 -76 -12 -95 -3 -19 -7 -171 -9 -338 l-4 -302 -38 -53 c-240
-326 -422 -731 -487 -1081 -25 -136 -26 -145 -29 -336 -4 -218 6 -315 52 -510
101 -421 350 -852 668 -1160 297 -287 720 -527 1144 -649 117 -34 125 -39 181
-104 95 -111 302 -312 409 -397 380 -302 765 -462 1265 -527 121 -15 530 -8
631 11 12 3 37 7 55 10 73 12 97 17 179 38 441 108 878 380 1219 758 84 94
153 175 179 211 7 10 38 25 70 34 809 226 1349 657 1620 1291 58 135 139 390
157 495 3 18 8 35 10 39 2 3 10 46 19 95 8 50 18 106 21 125 15 76 14 503 0
608 -46 334 -192 717 -377 990 -27 40 -34 60 -31 85 8 62 9 396 1 484 -8 87
-24 220 -34 265 -2 13 -6 34 -9 48 -51 265 -163 558 -296 773 -27 43 -49 81
-49 83 0 3 -5 10 -10 17 -6 7 -40 53 -76 102 -378 511 -920 856 -1479 941 -16
3 -39 6 -50 9 -125 26 -582 27 -735 1 -14 -3 -61 -10 -105 -16 -118 -17 -329
-66 -484 -112 -180 -53 -175 -53 -224 -35 -82 30 -333 105 -437 130 -173 42
-314 67 -525 93 -56 7 -461 12 -515 7z m440 -127 c49 -4 100 -9 112 -11 13 -2
59 -9 103 -15 118 -15 269 -46 385 -77 30 -8 63 -16 73 -18 10 -2 65 -19 123
-36 l105 -32 -113 -48 c-378 -158 -813 -397 -1076 -592 -52 -38 -57 -39 -86
-28 -113 46 -147 54 -226 57 -344 14 -601 -285 -519 -604 10 -41 18 -76 17
-77 -2 -1 -25 -17 -53 -35 -65 -43 -280 -204 -326 -244 -20 -17 -62 -53 -95
-81 -183 -156 -429 -399 -559 -553 -33 -39 -63 -71 -66 -71 -11 -2 2 417 16
514 3 17 10 68 16 115 16 130 18 137 43 250 67 298 160 538 290 745 59 93 47
77 136 188 162 202 361 359 595 472 138 66 300 121 415 141 14 3 32 7 40 9 27
8 156 24 242 31 45 4 84 7 85 8 5 4 239 -2 323 -8z m2425 -50 c362 -34 684
-142 959 -322 383 -251 709 -631 884 -1029 67 -153 140 -389 157 -510 3 -22 8
-46 10 -53 3 -7 7 -40 11 -75 3 -34 9 -66 11 -70 9 -16 16 -417 7 -416 -5 0
-31 30 -59 66 -74 98 -343 366 -480 479 -200 165 -423 320 -632 439 -57 32
-103 61 -103 64 0 3 7 29 16 56 9 29 16 85 16 135 -1 135 -48 246 -144 340
-132 129 -315 177 -496 132 l-82 -21 -122 78 c-313 200 -679 390 -1053 546
-40 17 -40 17 -15 27 68 26 360 91 515 113 22 4 51 8 65 11 14 2 77 7 140 10
63 4 116 7 117 8 5 4 215 -2 278 -8z m-1268 -231 c38 -14 77 -29 88 -35 11 -5
76 -33 145 -62 272 -114 646 -311 912 -481 l78 -49 -51 -56 c-146 -164 -168
-398 -54 -577 18 -28 44 -64 59 -80 l27 -29 -44 -45 c-24 -25 -69 -72 -99
-105 l-54 -58 -40 20 c-140 71 -321 83 -479 30 -93 -31 -164 -75 -241 -152
-98 -97 -151 -208 -169 -350 -3 -27 -8 -52 -10 -55 -2 -5 -390 -7 -417 -2 -5
0 -8 20 -8 44 0 23 -7 68 -15 99 -90 346 -473 539 -814 409 l-49 -18 -86 105
-86 105 30 34 c122 138 140 399 39 545 -11 14 -19 29 -19 32 0 3 -9 15 -20 26
-11 11 -20 24 -20 30 0 11 159 120 302 207 234 142 550 303 768 393 58 23 114
46 125 51 35 15 120 47 127 48 4 1 38 -10 75 -24z m-1617 -682 c107 -52 174
-127 205 -228 21 -70 19 -133 -7 -212 -37 -116 -160 -219 -285 -243 -175 -32
-351 55 -425 209 -27 57 -32 77 -32 146 0 69 4 89 30 146 29 60 95 136 142
164 71 40 129 54 217 52 78 -2 99 -6 155 -34z m3278 23 c197 -53 319 -255 265
-441 -70 -239 -366 -347 -581 -211 -53 33 -120 109 -144 164 -17 36 -22 68
-22 137 -1 79 2 97 26 145 85 172 269 255 456 206z m-3689 -780 c147 -75 337
-79 474 -10 41 21 52 23 62 12 7 -7 42 -50 79 -96 l67 -83 -55 -52 c-116 -111
-179 -257 -177 -412 1 -84 6 -110 32 -188 51 -152 170 -277 330 -346 l75 -33
-44 -161 c-25 -89 -46 -163 -47 -165 -2 -2 -36 3 -77 11 -214 40 -413 -19
-563 -168 -125 -124 -184 -273 -171 -435 4 -47 9 -99 12 -116 l6 -30 -158 -48
c-148 -45 -159 -47 -169 -31 -82 143 -231 252 -370 271 -85 11 -91 11 -156 2
-85 -11 -145 -32 -214 -74 -32 -19 -59 -33 -60 -32 -10 13 -104 442 -125 573
-5 33 -12 71 -15 85 -3 14 -8 52 -11 85 -4 33 -8 63 -10 66 -2 3 -6 35 -9 70
-3 35 -8 75 -10 89 -4 30 -17 181 -20 228 0 18 6 45 16 60 59 95 379 441 540
584 14 13 48 43 75 68 80 73 303 249 419 332 l108 77 59 -55 c33 -30 81 -65
107 -78z m4094 73 c147 -83 421 -268 567 -386 135 -108 402 -366 496 -478 28
-33 76 -95 108 -137 l58 -78 -6 -62 c-4 -35 -9 -72 -11 -83 -3 -11 -7 -37 -10
-58 -3 -21 -12 -73 -21 -115 -9 -42 -18 -88 -20 -102 -3 -14 -8 -34 -11 -45
-4 -11 -8 -25 -9 -30 -17 -91 -116 -389 -184 -553 l-43 -102 -41 24 c-234 137
-549 65 -699 -160 l-34 -51 -139 28 c-76 15 -162 33 -190 39 l-52 11 1 82 c2
103 -6 157 -33 229 -68 183 -246 332 -445 374 -83 17 -234 11 -306 -11 -11 -4
-19 8 -31 42 -9 27 -39 113 -67 192 -28 80 -51 148 -51 152 0 4 25 19 55 33
279 127 414 421 326 707 -22 68 -76 160 -130 218 l-32 34 24 26 c13 14 44 49
69 76 26 28 58 63 72 80 24 28 27 29 58 16 126 -50 264 -59 379 -22 72 23 168
81 213 130 17 17 33 31 38 31 5 0 50 -23 101 -51z m-2883 -235 c227 -65 386
-278 375 -503 -7 -123 -58 -232 -151 -324 -139 -137 -369 -188 -553 -123 -128
46 -241 146 -296 260 -40 87 -53 142 -49 228 6 152 70 274 196 371 131 102
315 137 478 91z m1665 -4 c89 -28 153 -67 221 -135 67 -66 106 -133 129 -222
15 -56 21 -156 11 -199 -29 -136 -100 -242 -216 -325 -122 -87 -308 -116 -457
-71 -213 65 -354 236 -370 447 -20 257 181 491 447 522 25 3 46 6 48 8 9 8
135 -8 187 -25z m-736 -668 c29 -81 87 -168 154 -228 112 -103 232 -152 396
-162 l104 -7 28 -80 c15 -44 47 -137 72 -206 l45 -127 -54 -37 c-200 -138
-294 -387 -232 -615 11 -41 20 -80 21 -87 1 -6 -74 -66 -168 -132 l-169 -121
-26 24 c-79 75 -227 134 -358 142 -77 6 -111 2 -222 -20 -42 -9 -183 -83 -224
-119 l-40 -34 -170 120 c-94 66 -172 121 -174 122 -2 2 6 18 17 38 55 99 81
259 58 362 -5 22 -10 47 -12 55 -23 106 -122 248 -222 317 -38 26 -52 41 -48
52 5 13 50 176 71 256 3 11 6 25 8 30 2 6 6 22 10 36 7 25 11 26 99 32 144 10
269 61 375 153 70 62 145 178 176 277 5 15 25 17 234 17 l229 0 22 -58z
m-3575 -332 c3 -25 8 -70 11 -100 2 -30 7 -71 10 -90 3 -19 7 -51 9 -70 4 -31
38 -243 52 -325 12 -68 76 -347 102 -445 l29 -105 -25 -49 c-35 -70 -50 -134
-50 -219 -1 -212 145 -403 353 -462 33 -9 66 -20 74 -24 7 -3 31 -65 52 -136
137 -456 323 -862 565 -1232 51 -79 89 -143 84 -143 -22 0 -247 88 -357 141
-530 250 -915 623 -1149 1114 -77 161 -154 380 -180 510 -40 199 -48 504 -19
655 3 14 8 41 11 60 39 222 163 552 286 759 56 94 131 212 133 209 2 -2 6 -23
9 -48z m6988 -238 c76 -162 149 -390 174 -546 3 -21 8 -48 10 -60 11 -54 19
-184 19 -316 0 -168 -9 -269 -36 -406 -5 -28 -12 -63 -15 -79 -3 -16 -18 -78
-35 -139 -76 -281 -170 -503 -290 -685 -62 -94 -71 -107 -139 -185 -211 -246
-500 -451 -825 -586 -55 -23 -109 -45 -120 -50 -46 -20 -169 -60 -176 -58 -8
3 66 129 122 210 11 15 19 29 19 32 0 3 14 29 31 58 59 99 189 368 255 526 63
151 177 479 205 591 7 29 18 54 24 56 5 1 35 8 65 15 135 32 263 137 326 269
68 144 56 332 -30 459 l-33 50 39 89 c61 136 132 335 176 488 40 141 68 258
97 415 17 89 14 88 53 19 19 -35 57 -110 84 -167z m-4839 -207 c88 -18 195
-77 259 -140 213 -213 189 -555 -52 -736 -210 -158 -514 -140 -700 41 -100 97
-151 215 -151 350 0 159 74 301 206 395 131 94 278 124 438 90z m2604 -49 c29
-3 82 -17 118 -31 205 -77 335 -258 335 -468 0 -218 -170 -423 -400 -481 -69
-17 -208 -14 -279 8 -119 35 -230 119 -296 221 -49 78 -66 132 -72 231 -5 75
-2 104 16 161 59 197 236 338 451 362 36 4 67 6 70 5 3 -1 29 -4 57 -8z m1493
-545 c95 -26 189 -103 235 -192 66 -128 45 -285 -56 -393 -150 -163 -406 -168
-564 -11 -78 77 -99 130 -100 245 0 84 3 102 28 151 50 104 161 189 267 206
13 2 26 6 28 8 8 8 118 -2 162 -14z m-5500 -6 c52 -13 132 -59 175 -102 195
-192 116 -503 -153 -597 -28 -10 -73 -14 -135 -13 -76 2 -102 7 -149 29 -76
35 -138 95 -179 170 -45 86 -52 193 -18 283 26 70 121 172 185 200 86 38 192
49 274 30z m779 -219 c17 -24 56 -67 87 -95 226 -201 574 -208 814 -17 l54 43
155 -110 c86 -60 162 -115 170 -122 11 -11 8 -24 -18 -79 -116 -242 -43 -533
176 -704 50 -39 172 -97 228 -108 22 -5 43 -9 48 -10 4 -1 14 -2 23 -3 8 0 13
-4 11 -9 -3 -4 -8 -84 -12 -177 -3 -94 -9 -173 -13 -176 -4 -4 -29 -12 -57
-18 -72 -18 -155 -65 -214 -122 -100 -96 -141 -189 -147 -329 -4 -99 4 -139
45 -233 12 -27 21 -50 21 -51 0 -11 -454 -13 -618 -3 -187 12 -370 34 -512 62
-14 2 -38 7 -55 10 -16 3 -74 15 -128 27 l-97 21 -50 66 c-27 36 -53 71 -57
76 -65 85 -210 322 -286 466 -141 266 -279 605 -362 891 -25 86 -28 79 45 93
53 11 150 58 197 96 119 97 185 236 185 390 l-1 65 162 51 c89 28 165 52 169
52 4 1 21 -19 37 -43z m3921 4 c85 -17 162 -33 170 -35 13 -4 15 -18 12 -73
-4 -76 15 -169 51 -241 29 -59 115 -151 177 -191 53 -34 194 -83 206 -72 27
25 -70 -284 -163 -518 -124 -313 -280 -613 -455 -875 -93 -139 -94 -140 -143
-153 -68 -17 -183 -39 -300 -58 -16 -2 -41 -6 -55 -9 -14 -2 -52 -7 -85 -11
-33 -3 -73 -8 -89 -9 -16 -2 -70 -7 -120 -10 -50 -4 -113 -8 -141 -11 -117 -9
-585 -2 -669 10 -26 4 -27 11 -11 72 33 124 7 287 -62 387 -74 109 -204 196
-329 219 l-62 11 4 61 c1 34 6 112 9 175 3 63 6 116 8 117 1 1 22 5 47 9 138
19 294 108 381 217 43 54 103 171 114 224 4 16 8 72 10 124 4 110 -10 174 -59
271 l-33 66 154 109 c84 60 158 110 163 112 5 2 31 -19 57 -46 224 -230 599
-249 847 -43 54 45 146 155 146 177 0 19 25 35 45 30 11 -3 90 -19 175 -36z
m-1914 -161 c325 -122 440 -504 230 -764 -74 -90 -144 -139 -256 -177 -94 -32
-238 -30 -336 4 -314 109 -444 443 -281 721 76 130 235 230 387 244 30 3 56 6
57 7 8 7 157 -20 199 -35z m-62 -1560 c309 -116 336 -505 47 -657 -150 -79
-324 -55 -451 64 -46 43 -95 125 -106 178 -10 45 -4 143 10 182 46 131 178
239 306 252 25 2 46 5 48 7 8 7 104 -10 146 -26z m1735 -600 c-18 -35 -288
-300 -379 -373 -297 -237 -655 -405 -981 -461 -52 -9 -105 -18 -119 -20 -37
-7 -235 -19 -310 -19 -78 0 -295 13 -313 19 -6 2 -30 6 -52 9 -83 12 -114 18
-243 51 -293 75 -580 220 -842 424 -87 68 -344 311 -336 318 2 2 41 -3 87 -12
46 -9 102 -18 124 -20 22 -3 51 -7 65 -10 33 -7 164 -21 270 -31 225 -19 572
-19 773 1 47 5 63 2 85 -13 125 -89 307 -118 452 -73 77 24 171 78 218 127 21
22 40 33 50 30 86 -26 785 -26 982 -1 19 3 60 7 90 10 105 10 370 52 379 61
11 10 11 2 0 -17z"/>
<path d="M2880 5575 c-17 -19 -18 -42 -18 -320 0 -257 2 -303 16 -317 13 -16
36 -18 187 -18 147 0 175 2 186 16 11 13 14 80 14 317 0 267 -1 303 -16 321
-16 20 -27 21 -184 21 -154 0 -167 -1 -185 -20z m340 -295 l0 -228 -155 0
c-85 0 -156 3 -156 7 -4 19 -4 428 -1 439 3 9 42 12 158 11 l154 -1 0 -228z
m-100 -288 c0 -15 -8 -18 -55 -16 -31 1 -58 4 -61 7 -14 14 10 24 61 26 47 1
55 -1 55 -17z"/>
<path d="M4531 5688 c-47 -17 -241 -195 -241 -221 0 -34 98 -74 189 -78 l49
-2 6 -59 c7 -71 33 -125 87 -178 47 -47 98 -75 154 -86 22 -5 43 -9 48 -10 4
-1 18 -2 32 -3 23 -1 25 -4 22 -38 -4 -46 18 -128 45 -165 18 -27 21 -27 47
-13 65 33 236 213 219 230 -20 21 -122 58 -168 62 l-57 6 -6 58 c-14 158 -148
273 -327 278 -12 1 -15 12 -14 48 2 50 -12 100 -42 149 -17 27 -22 30 -43 22z
m-81 -113 c-30 -31 -64 -60 -75 -66 -11 -6 11 19 48 55 83 80 103 88 27 11z
m88 3 c2 -18 -9 -36 -45 -71 -47 -46 -74 -56 -102 -38 -11 7 1 24 55 75 38 36
74 64 79 62 6 -1 11 -14 13 -28z m-13 -88 c-16 -16 -33 -30 -38 -30 -9 0 53
60 62 60 3 0 -8 -13 -24 -30z m19 -25 c-4 -8 -11 -15 -16 -15 -6 0 -5 6 2 15
7 8 14 15 16 15 2 0 1 -7 -2 -15z m156 -64 c7 -1 -83 -91 -92 -91 -4 0 -8 20
-8 44 0 48 6 53 64 49 17 -1 33 -2 36 -2z m10 -34 c0 -2 -17 -19 -37 -38 l-38
-34 34 38 c33 34 41 42 41 34z m83 -11 c16 -12 11 -19 -54 -77 -39 -35 -76
-66 -81 -68 -10 -3 -28 16 -28 31 0 11 123 128 135 127 6 0 18 -6 28 -13z m-8
-87 c-22 -22 -53 -50 -70 -61 -16 -11 -2 8 33 41 70 68 98 83 37 20z m83 -4
c3 -11 -17 -37 -54 -71 -60 -56 -69 -60 -94 -44 -12 8 -2 22 55 75 70 66 87
73 93 40z m-2 -74 c-4 -5 -21 -20 -39 -32 l-32 -22 35 35 c33 33 50 42 36 19z
m29 -35 c0 -31 -3 -33 -44 -39 l-34 -6 34 35 c39 40 45 42 44 10z m79 -117
c-24 -26 -30 -28 -33 -13 -3 19 23 44 48 44 10 0 5 -10 -15 -31z m46 8 c0 -2
-15 -16 -32 -33 l-33 -29 29 33 c28 30 36 37 36 29z m85 -6 c6 -11 -119 -126
-137 -126 -28 0 -15 26 39 78 55 54 85 68 98 48z m-37 -98 c-43 -42 -79 -75
-82 -72 -3 2 -2 9 2 14 13 18 143 135 150 135 4 0 -28 -35 -70 -77z"/>
<path d="M2871 4081 l-22 -22 21 -27 c70 -91 99 -164 95 -238 -4 -73 -21 -125
-57 -178 -65 -94 -67 -106 -19 -106 20 0 36 11 64 48 118 156 107 381 -26 511
l-35 33 -21 -21z"/>
<path d="M2295 4063 c-104 -105 -133 -286 -68 -424 51 -108 109 -155 143 -114
10 12 6 22 -23 56 -61 70 -80 123 -81 214 0 92 20 147 80 220 30 37 34 48 24
60 -19 22 -44 18 -75 -12z"/>
<path d="M2387 3960 c-74 -87 -76 -214 -5 -318 24 -35 35 -43 56 -40 38 4 38
29 0 82 -29 41 -32 54 -33 114 0 61 3 72 33 112 35 48 40 75 16 84 -26 10 -31
8 -67 -34z"/>
<path d="M2765 3980 c-4 -14 3 -35 24 -66 54 -82 51 -168 -10 -244 -31 -40
-25 -70 14 -70 26 1 83 72 97 122 21 73 -10 209 -58 250 -31 28 -60 31 -67 8z"/>
<path d="M2568 3897 c-47 -21 -71 -62 -65 -109 11 -85 105 -125 177 -76 112
76 12 241 -112 185z"/>
<path d="M5555 3980 c-31 -13 -57 -50 -62 -89 -4 -27 1 -45 21 -73 l25 -37
-34 1 c-39 1 -104 -27 -112 -49 -4 -11 -10 -8 -25 15 -43 69 -136 77 -193 17
l-30 -33 -30 24 c-20 16 -43 24 -68 24 -35 0 -37 1 -23 16 9 8 17 24 17 35 1
10 2 25 3 32 1 6 -2 24 -7 39 -26 80 -141 97 -202 29 -20 -24 -26 -85 -11
-128 7 -20 5 -23 -17 -23 -25 0 -38 -15 -30 -35 2 -6 53 -9 134 -7 177 5 219
-15 219 -100 0 -44 -18 -50 -51 -17 -37 37 -47 11 -52 -140 -4 -122 -2 -136
15 -153 11 -11 22 -18 24 -15 3 3 6 53 7 112 2 115 5 121 67 136 39 10 211 10
254 -1 63 -14 68 -25 68 -139 -1 -80 2 -101 13 -101 25 0 30 23 31 150 1 96
-2 131 -14 149 l-15 25 -18 -23 c-10 -12 -26 -21 -36 -19 -28 6 -21 75 12 107
25 26 28 26 170 26 144 0 145 0 145 23 0 21 -17 28 -58 23 -10 -2 -10 2 0 18
7 12 16 21 19 21 14 0 16 66 3 97 -22 51 -52 73 -98 72 -23 0 -50 -4 -61 -9z
m89 -41 c69 -32 37 -129 -43 -129 -27 0 -60 31 -65 62 -3 19 3 34 21 52 28 28
49 32 87 15z m-666 -29 c56 -53 -12 -145 -80 -109 -52 28 -61 67 -23 104 30
31 73 32 103 5z m352 -185 c20 -36 5 -74 -35 -91 -31 -13 -39 -13 -64 0 -47
25 -55 70 -18 103 12 11 29 23 37 25 25 8 66 -11 80 -37z m30 -115 c0 -5 -5
-10 -11 -10 -5 0 -7 5 -4 10 3 6 8 10 11 10 2 0 4 -4 4 -10z"/>
<path d="M4791 3628 c0 -7 9 -33 19 -58 l19 -45 0 46 c1 42 -11 69 -31 69 -4
0 -8 -6 -7 -12z"/>
<path d="M5719 3623 c-14 -16 -24 -63 -14 -63 8 0 36 61 33 71 -2 6 -10 2 -19
-8z"/>
<path d="M5121 3446 c-7 -9 -11 -41 -9 -83 3 -62 5 -68 26 -71 21 -3 22 0 22
66 0 96 -11 121 -39 88z"/>
<path d="M5382 3448 c-7 -7 -12 -41 -12 -86 0 -70 1 -73 23 -70 21 3 22 8 22
82 0 79 -9 98 -33 74z"/>
<path d="M3760 3264 c-191 -52 -288 -244 -219 -431 27 -70 90 -135 167 -171
76 -36 192 -37 266 -4 27 12 54 22 60 22 6 0 23 -17 38 -38 110 -153 152 -184
206 -146 51 36 47 102 -10 145 -17 13 -59 47 -93 74 l-61 50 25 55 c35 75 36
191 3 265 -66 144 -230 221 -382 179z m180 -105 c58 -26 87 -53 114 -109 72
-145 -28 -310 -196 -324 -130 -11 -249 98 -249 228 0 87 58 174 141 210 50 22
136 20 190 -5z"/>
<path d="M3921 3056 c-10 -12 -15 -272 -5 -287 5 -9 83 28 85 40 7 41 3 244
-6 249 -17 11 -64 10 -74 -2z"/>
<path d="M3688 2978 c-4 -11 -3 -150 1 -169 2 -9 42 -35 67 -43 21 -7 22 -5
19 101 -2 59 -3 111 -4 116 -2 12 -79 8 -83 -5z"/>
<path d="M3806 2898 c-8 -33 -9 -47 -7 -99 1 -43 3 -47 29 -51 56 -8 60 -3 61
77 0 41 -3 76 -7 78 -4 3 -21 8 -39 12 -28 6 -33 4 -37 -17z"/>
</g>
</svg>
