<?xml version="1.0" standalone="no"?>
<!DOCTYPE svg PUBLIC "-//W3C//DTD SVG 20010904//EN"
 "http://www.w3.org/TR/2001/REC-SVG-20010904/DTD/svg10.dtd">
<svg version="1.0" xmlns="http://www.w3.org/2000/svg"
 width="512.000000pt" height="512.000000pt" viewBox="0 0 512.000000 512.000000"
 preserveAspectRatio="xMidYMid meet">
<metadata>
Created by potrace 1.11, written by Peter Selinger 2001-2013
</metadata>
<g transform="translate(0.000000,512.000000) scale(0.100000,-0.100000)"
fill="#000000" stroke="none">
<path d="M1810 5044 c-78 -21 -146 -54 -231 -112 -235 -159 -396 -359 -562
-694 -164 -332 -264 -599 -337 -902 -70 -287 -180 -907 -180 -1010 0 -26 -7
-90 -16 -144 -19 -117 -14 -359 9 -467 45 -205 94 -317 185 -425 146 -173 312
-291 450 -321 65 -14 96 -38 129 -102 35 -71 134 -217 205 -303 73 -90 136
-146 213 -189 187 -104 597 -191 945 -202 166 -5 197 -3 305 18 131 25 141 25
295 14 171 -12 425 18 587 71 103 33 265 111 344 165 79 54 216 184 276 264
61 80 138 241 163 339 32 127 35 214 12 356 -17 101 -22 184 -25 430 -4 282
-7 314 -31 427 -14 68 -37 152 -51 188 -35 93 -101 202 -155 255 -25 25 -67
73 -93 106 -25 34 -70 83 -99 109 -48 43 -85 69 -243 170 -64 41 -144 171
-192 314 -46 141 -93 251 -156 374 -29 56 -71 147 -94 202 -133 312 -395 634
-652 800 -161 104 -439 219 -569 234 -37 5 -103 18 -146 30 -93 25 -205 27
-286 5z m425 -174 c33 -17 103 -47 155 -66 124 -47 277 -124 365 -182 144 -96
316 -289 462 -517 176 -277 238 -378 268 -440 60 -124 210 -485 201 -485 -1 0
-51 20 -109 44 -58 25 -164 63 -235 85 -120 38 -138 41 -243 41 -189 0 -273
-32 -381 -145 -82 -86 -119 -142 -148 -232 -22 -63 -25 -168 -5 -168 5 0 21
29 36 64 60 144 190 258 361 315 107 36 240 36 363 1 102 -30 214 -80 278
-124 25 -17 101 -61 169 -97 217 -118 300 -185 383 -313 65 -100 98 -184 149
-379 25 -93 52 -187 60 -207 8 -19 20 -93 26 -163 6 -70 17 -172 25 -226 8
-55 15 -125 15 -155 0 -31 7 -99 14 -152 11 -81 12 -111 0 -185 -30 -201 -113
-356 -272 -505 -85 -81 -132 -114 -239 -168 -78 -39 -217 -91 -244 -91 -6 0 6
12 27 26 21 14 59 43 84 63 25 21 59 45 76 54 50 26 93 67 114 108 39 76 22
99 -78 107 l-69 4 50 47 c107 100 213 253 259 374 45 118 42 232 -9 334 -40
78 -58 82 -49 12 3 -30 9 -98 12 -151 7 -95 6 -99 -24 -160 -38 -76 -133 -207
-262 -360 -52 -62 -101 -120 -108 -129 -17 -22 -5 -49 22 -49 11 -1 42 -6 68
-13 l47 -13 -92 -33 c-51 -19 -155 -61 -232 -94 -245 -105 -354 -138 -615
-188 -202 -38 -507 -18 -835 55 -226 50 -344 106 -443 210 -76 81 -180 226
-161 226 7 0 49 -7 94 -15 45 -9 120 -20 166 -24 47 -5 122 -22 170 -39 143
-51 332 -84 514 -89 l160 -6 -19 22 c-11 12 -74 48 -140 81 -124 60 -217 89
-421 130 -60 12 -145 33 -187 46 -43 13 -140 35 -216 49 -232 42 -453 114
-556 181 -95 62 -173 135 -242 226 -61 82 -78 112 -103 193 -51 158 -64 259
-56 420 4 77 9 172 10 210 6 154 152 935 225 1200 93 337 307 812 468 1040
137 194 366 381 508 414 22 5 104 10 184 10 143 2 146 1 205 -29z"/>
<path d="M1770 4617 c-220 -75 -341 -233 -435 -568 -14 -50 -43 -126 -65 -168
-52 -105 -122 -269 -154 -365 -40 -120 -56 -201 -63 -311 -5 -90 -4 -99 10
-85 32 31 105 190 177 387 27 73 75 187 106 255 31 68 74 164 94 214 47 117
173 333 228 391 79 82 223 133 377 133 54 0 205 -33 335 -73 51 -16 70 -13 70
12 0 28 -50 68 -140 110 -98 45 -171 66 -290 80 -123 16 -177 13 -250 -12z"/>
<path d="M2503 4110 c-92 -14 -72 -30 94 -74 190 -51 262 -91 411 -228 40 -38
78 -68 84 -68 16 0 0 50 -34 102 -105 165 -376 296 -555 268z"/>
<path d="M3098 2735 c-42 -7 -81 -16 -87 -20 -25 -15 4 -25 74 -25 84 0 312
-53 425 -99 173 -71 266 -168 314 -330 24 -81 21 -231 -5 -317 -29 -95 -68
-258 -63 -263 11 -11 37 33 104 175 62 134 72 163 82 242 14 111 -1 185 -61
307 -66 133 -170 222 -334 285 -161 61 -280 73 -449 45z"/>
<path d="M864 2125 c-3 -20 -4 -71 -2 -114 7 -115 60 -220 185 -368 l54 -63
-39 0 c-51 0 -82 -23 -82 -61 0 -24 19 -49 103 -134 95 -96 112 -108 207 -154
140 -66 231 -85 395 -85 143 0 265 4 265 10 0 1 -55 30 -122 64 -93 46 -144
65 -208 77 -92 17 -192 46 -309 89 -75 28 -84 44 -14 25 67 -19 109 -14 132
15 42 54 26 87 -88 173 -139 106 -203 181 -354 412 -41 63 -83 122 -95 132
-21 19 -21 19 -28 -18z"/>
</g>
</svg>
